<?xml version="1.0" standalone="no"?>
<!DOCTYPE svg PUBLIC "-//W3C//DTD SVG 20010904//EN"
 "http://www.w3.org/TR/2001/REC-SVG-20010904/DTD/svg10.dtd">
<svg version="1.0" xmlns="http://www.w3.org/2000/svg"
 width="400.000000pt" height="100.000000pt" viewBox="0 0 400.000000 100.000000"
 preserveAspectRatio="xMidYMid meet">
<metadata>
Created by potrace 1.16, written by Peter Selinger 2001-2019
</metadata>
<g transform="translate(0.000000,100.000000) scale(0.100000,-0.100000)"
fill="#000000" stroke="none">
<path d="M1306 708 c-3 -18 -10 -60 -16 -92 -5 -33 -10 -71 -10 -84 0 -27 1
-27 138 -4 66 11 50 27 -23 25 -74 -3 -71 -9 -51 97 16 81 14 90 -14 90 -14 0
-21 -9 -24 -32z"/>
<path d="M1815 670 c-10 -11 -24 -20 -32 -20 -7 0 -32 -19 -54 -41 -47 -47
-59 -42 -59 29 0 60 -21 54 -56 -15 -40 -79 -58 -82 -49 -8 7 56 7 57 -16 53
-21 -3 -25 -10 -30 -58 -3 -30 -2 -63 3 -72 12 -26 52 -22 86 7 24 20 31 22
36 10 10 -27 54 -17 98 23 27 24 39 31 35 18 -12 -30 18 -66 54 -66 39 0 65
14 112 58 l37 36 0 -33 c0 -51 16 -71 56 -71 28 0 43 9 77 44 l43 44 17 -42
c9 -23 17 -47 17 -54 0 -6 9 -12 21 -12 15 0 26 13 41 49 19 45 25 50 58 53
l36 3 0 -40 c-1 -34 2 -40 21 -43 14 -2 32 6 48 22 13 13 27 20 30 15 13 -20
58 -8 91 25 19 19 34 39 34 45 0 20 -24 12 -56 -20 -31 -30 -32 -30 -39 -10
-3 11 -3 25 0 31 3 6 3 19 0 30 -8 26 -54 27 -86 1 -30 -23 -85 -36 -94 -22
-3 6 -15 11 -26 11 -18 0 -22 -7 -45 -70 -8 -23 -24 8 -24 48 0 45 -25 42 -75
-9 -22 -22 -52 -47 -67 -55 l-28 -15 0 55 0 55 -34 -1 c-24 -1 -43 -11 -67
-36 -34 -35 -87 -64 -101 -56 -13 8 -9 49 7 70 8 11 15 14 15 7 0 -7 7 -13 16
-13 11 0 14 8 12 28 -4 34 -37 41 -63 12z"/>
<path d="M3030 655 c-13 -14 -28 -25 -33 -25 -5 0 -30 -18 -54 -40 -24 -23
-48 -38 -55 -34 -6 4 -8 26 -5 60 5 49 4 54 -14 54 -11 0 -22 -7 -25 -15 -4
-8 -12 -15 -18 -15 -7 0 -27 -16 -46 -35 -37 -39 -48 -35 -59 17 -9 45 -49 51
-80 12 l-21 -27 2 24 c2 18 -2 24 -17 24 -17 0 -22 -10 -29 -58 -15 -93 22
-97 76 -9 l22 35 11 -39 c9 -34 15 -39 44 -42 27 -3 40 3 67 29 l33 32 7 -29
c4 -16 11 -35 17 -41 17 -22 61 -14 99 17 36 30 37 30 40 8 4 -30 43 -36 70
-12 19 18 20 18 29 1 18 -31 89 -12 89 24 0 13 -24 11 -38 -3 -14 -14 -20 0
-24 62 -3 42 -5 45 -33 48 -22 2 -37 -4 -55 -23z"/>
<path d="M2246 463 c-2 -10 -7 -32 -11 -50 -5 -27 -11 -32 -46 -38 -30 -5 -45
-3 -58 9 -30 27 -69 20 -91 -16 -26 -43 -34 -72 -26 -103 14 -56 126 -14 129
48 2 20 7 27 22 27 11 0 29 3 41 6 17 5 20 1 20 -29 0 -20 6 -42 13 -51 21
-25 74 -20 102 10 l24 26 5 -29 c4 -24 10 -28 41 -31 42 -4 99 36 99 69 0 14
7 19 29 19 16 0 36 3 45 6 10 4 16 1 16 -9 0 -8 12 -22 26 -32 20 -13 23 -19
13 -31 -6 -8 -18 -14 -25 -14 -8 0 -14 -7 -14 -15 0 -22 46 -19 70 5 27 27 25
48 -5 80 -23 24 -24 28 -10 40 8 7 15 19 15 26 0 18 -34 18 -49 0 -19 -23 -78
-29 -113 -12 -44 22 -71 20 -98 -9 -13 -14 -27 -25 -32 -25 -5 0 -27 -14 -48
-31 -52 -42 -64 -32 -56 45 3 33 9 76 12 94 5 28 3 32 -14 32 -11 0 -23 -8
-26 -17z"/>
<path d="M1822 457 c-37 -13 -38 -17 -46 -130 -5 -68 -4 -78 12 -83 9 -3 25
-10 34 -15 48 -25 122 4 144 58 13 31 13 38 -1 59 -8 13 -20 24 -25 24 -5 0
-1 13 8 30 24 43 8 65 -49 66 -24 1 -59 -3 -77 -9z"/>
</g>
</svg>
